<?xml version="1.0" encoding="utf-8"?>
<!-- Generator: Adobe Illustrator 27.7.0, SVG Export Plug-In . SVG Version: 6.00 Build 0)  -->
<svg version="1.1" id="Calque_1" xmlns="http://www.w3.org/2000/svg" xmlns:xlink="http://www.w3.org/1999/xlink" x="0px" y="0px"
	 viewBox="0 0 72 72" style="enable-background:new 0 0 72 72;" xml:space="preserve">
<style type="text/css">
	.st0{fill:#207FA0;}
</style>
<g transform="translate(0.000000,72.000000) scale(0.100000,-0.100000)">
	<path class="st0" d="M271.5,692.6C106.5,640.4,15,520.2,15,357.9C15,159.6,156.5,19,360,19s345,140.5,345,338.9
		c0,137.6-64.8,244.8-188.7,307C452.9,697,327.6,711.4,271.5,692.6z M519.2,586.8c174-114.4,154.8-385.3-33.9-475.1
		c-89.9-43.4-202-36.2-284.6,18.9c-171,110.2-154.7,381,29.5,472.3C317.3,646.2,436.7,639,519.2,586.8z"/>
	<path class="st0" d="M259.8,557.9c-29.5-29-20.7-81.1,19.2-107.2c33.9-21.7,39.8-21.7,73.8,0c39.8,26.1,45.6,52.1,22.1,97
		C357.1,579.6,287.8,585.4,259.8,557.9z"/>
	<path class="st0" d="M421.9,413c-10.3-10.2-17.7-34.7-17.7-55.1c0-44.9,25.1-72.4,66.3-72.4s66.3,27.5,66.3,72.4
		s-25.1,72.4-66.3,72.4C452.9,430.4,432.2,423.2,421.9,413z"/>
	<path class="st0" d="M274.5,262.4c-17.7-11.5-32.4-37.7-32.4-55.1c0-78.3,113.5-92.7,140.1-17.4c11.8,34.7,8.8,44.9-20.7,68.1
		C320.2,291.3,315.7,291.3,274.5,262.4z"/>
</g>
</svg>
